<svg width="14" height="23" viewBox="0 0 14 23" fill="none" xmlns="http://www.w3.org/2000/svg">
    <path d="M6.99938 4.06076C8.25646 4.06076 9.279 5.08329 9.279 6.34038C9.279 7.59641 8.2562 8.61894 6.99938 8.61894C5.74309 8.61894 4.72029 7.59641 4.72029 6.34038C4.72003 5.08303 5.74335 4.06076 6.99938 4.06076ZM6.99938 11.8441C10.0359 11.8441 12.5052 9.37556 12.5052 6.34038C12.5052 3.30361 10.0361 0.833984 6.99938 0.833984C3.96314 0.833984 1.49352 3.30388 1.49352 6.34038C1.49352 9.37556 3.96314 11.8441 6.99938 11.8441ZM9.22682 16.3351C10.3595 16.0772 11.4404 15.6296 12.4238 15.0113C12.7859 14.7836 13.0426 14.4213 13.1375 14.0042C13.2325 13.5871 13.1579 13.1494 12.9301 12.7873C12.8174 12.6079 12.6705 12.4524 12.4977 12.3298C12.3249 12.2072 12.1296 12.1198 11.923 12.0727C11.7165 12.0256 11.5026 12.0197 11.2938 12.0553C11.0849 12.091 10.8851 12.1674 10.7058 12.2803C8.45017 13.6984 5.54701 13.6973 3.29323 12.2803C3.11396 12.1674 2.91418 12.0909 2.70533 12.0553C2.49648 12.0196 2.28265 12.0255 2.07608 12.0726C1.86951 12.1197 1.67425 12.2071 1.50148 12.3297C1.32872 12.4524 1.18183 12.6079 1.06922 12.7873C0.841364 13.1493 0.766613 13.5869 0.861404 14.004C0.956195 14.4211 1.21277 14.7834 1.57469 15.0113C2.55807 15.6294 3.63875 16.0769 4.77116 16.3351L1.69328 19.4135C1.39081 19.7161 1.22092 20.1264 1.221 20.5543C1.22107 20.9821 1.3911 21.3924 1.69367 21.6948C1.99625 21.9973 2.40659 22.1672 2.83442 22.1671C3.26225 22.167 3.67253 21.997 3.975 21.6944L6.99885 18.6701L10.0245 21.6947C10.1742 21.8445 10.3518 21.9634 10.5474 22.0445C10.743 22.1256 10.9526 22.1673 11.1644 22.1673C11.3761 22.1673 11.5857 22.1256 11.7813 22.0445C11.9769 21.9634 12.1546 21.8445 12.3042 21.6947C12.4542 21.5451 12.5733 21.3674 12.6545 21.1717C12.7357 20.976 12.7775 20.7662 12.7775 20.5544C12.7775 20.3425 12.7357 20.1327 12.6545 19.937C12.5733 19.7414 12.4542 19.5636 12.3042 19.414L9.22682 16.3351Z" fill="#B0B7C0" fill-opacity="0.8"/>
</svg>