<svg width="22" height="14" viewBox="0 0 22 14" fill="none" xmlns="http://www.w3.org/2000/svg">
    <path fill-rule="evenodd" clip-rule="evenodd" d="M21.1769 1.52388C21.3252 1.02943 21.1769 0.666016 20.471 0.666016H18.1372C17.5437 0.666016 17.2703 0.979922 17.1219 1.32617C17.1219 1.32617 15.935 4.21901 14.2536 6.09812C13.7096 6.64208 13.4624 6.81495 13.1657 6.81495C13.0173 6.81495 12.8026 6.64208 12.8026 6.14763V1.52388C12.8026 0.930411 12.6304 0.666016 12.1358 0.666016H8.46824C8.09749 0.666016 7.87443 0.941414 7.87443 1.20247C7.87443 1.76511 8.71496 1.8948 8.80165 3.47717V6.91414C8.80165 7.66765 8.66562 7.80435 8.36888 7.80435C7.5777 7.80435 5.65325 4.89834 4.51165 1.57339C4.28793 0.927077 4.06355 0.666016 3.46707 0.666016H1.13319C0.466372 0.666016 0.333008 0.979922 0.333008 1.32617C0.333008 1.94431 1.12436 5.01036 4.0172 9.06531C5.94598 11.8343 8.66295 13.3356 11.1355 13.3356C12.6192 13.3356 12.8026 13.0022 12.8026 12.4279V10.3349C12.8026 9.66811 12.9431 9.53508 13.4127 9.53508C13.7591 9.53508 14.3524 9.70812 15.7373 11.0433C17.3196 12.6255 17.5804 13.3356 18.4706 13.3356H20.8045C21.4713 13.3356 21.8047 13.0022 21.6123 12.3442C21.4019 11.6884 20.6464 10.7372 19.6438 9.60927C19.0999 8.96628 18.2839 8.27396 18.0368 7.92788C17.6906 7.48277 17.7894 7.28506 18.0368 6.88963C18.0368 6.88963 20.8801 2.88387 21.1769 1.52388Z" fill="#B0B7C0" fill-opacity="0.8"/>
</svg>