<svg width="20" height="17" viewBox="0 0 20 17" fill="none" xmlns="http://www.w3.org/2000/svg">
    <path fill-rule="evenodd" clip-rule="evenodd" d="M14.5567 16.4234C15.6751 16.9126 16.0944 15.8875 16.0944 15.8875L19.0534 1.02289C19.0301 0.0210402 17.6788 0.626808 17.6788 0.626808L1.11335 7.12716C1.11335 7.12716 0.32119 7.40675 0.391086 7.89602C0.460983 8.38529 1.09005 8.61828 1.09005 8.61828L5.26053 10.0162C5.26053 10.0162 6.51866 14.1401 6.77494 14.9322C7.00793 15.7011 7.21762 15.7244 7.21762 15.7244C7.45061 15.8176 7.6603 15.6545 7.6603 15.6545L10.363 13.2081L14.5567 16.4234ZM15.279 3.65562C15.279 3.65562 15.8615 3.30614 15.8382 3.65562C15.8382 3.65562 15.9314 3.70222 15.6285 4.0284C15.3489 4.30798 8.75535 10.2259 7.86999 11.018C7.8001 11.0646 7.7535 11.1345 7.7535 11.2277L7.49721 13.4178C7.45061 13.6508 7.14773 13.6741 7.07784 13.4644L5.98279 9.87639C5.9362 9.73659 5.98279 9.5735 6.12259 9.48031L15.279 3.65562Z" fill="#B0B7C0" fill-opacity="0.8"/>
</svg>