<svg width="18" height="17" viewBox="0 0 18 17" fill="none" xmlns="http://www.w3.org/2000/svg">
    <path d="M1.21527 14.7722C0.793398 15.1941 0.773309 15.9474 1.22532 16.3894C1.66728 16.8313 2.42063 16.8213 2.84251 16.3994L8.98983 10.2421L15.1472 16.3994C15.5791 16.8313 16.3224 16.8313 16.7644 16.3894C17.1963 15.9374 17.2063 15.2041 16.7644 14.7722L10.6171 8.61483L16.7644 2.46751C17.2063 2.03559 17.2063 1.29228 16.7644 0.850318C16.3124 0.418398 15.5791 0.408353 15.1472 0.840273L8.98983 6.99764L2.84251 0.840273C2.42063 0.418398 1.65724 0.398309 1.22532 0.850318C0.783353 1.29228 0.793398 2.04563 1.21527 2.46751L7.37264 8.61483L1.21527 14.7722Z" fill="#B0B7C0"/>
</svg>
