<svg width="13" height="16" viewBox="0 0 13 16" fill="none" xmlns="http://www.w3.org/2000/svg">
<path d="M6.27316 15.1271C6.5067 15.1271 6.7327 15.0292 6.89844 14.8559L11.8479 9.90639C12.0363 9.71052 12.1191 9.50712 12.1191 9.29618C12.1191 8.81404 11.7801 8.46749 11.3206 8.46749C11.0795 8.46749 10.8761 8.56543 10.7254 8.7161L9.00781 10.4111L7.01144 12.5958L7.11691 10.8481L7.11691 1.71749C7.11691 1.21275 6.77037 0.866211 6.27316 0.866211C5.78348 0.866211 5.43694 1.21275 5.43694 1.71749L5.43694 10.8481L5.54241 12.5958L3.54604 10.4111L1.8284 8.7161C1.67773 8.56543 1.47433 8.46749 1.23326 8.46749C0.773717 8.46749 0.43471 8.81403 0.43471 9.29618C0.43471 9.50711 0.517579 9.71052 0.690849 9.89132L5.65541 14.8559C5.82115 15.0292 6.04715 15.1271 6.27316 15.1271Z" fill="#D5DAE1"/>
</svg>
