<svg width="15" height="13" viewBox="0 0 15 13" fill="none" xmlns="http://www.w3.org/2000/svg">
<path d="M14.6271 6.69559C14.6271 6.46205 14.5292 6.23605 14.3559 6.07031L9.40639 1.12081C9.21052 0.932478 9.00712 0.849609 8.79618 0.849609C8.31404 0.849609 7.96749 1.18862 7.96749 1.64816C7.96749 1.88923 8.06543 2.09263 8.2161 2.2433L9.91113 3.96094L12.0958 5.95731L10.3481 5.85184H1.21749C0.712751 5.85184 0.366211 6.19838 0.366211 6.69559C0.366211 7.18527 0.712751 7.53181 1.21749 7.53181H10.3481L12.0958 7.42634L9.91113 9.42271L8.2161 11.1403C8.06543 11.291 7.96749 11.4944 7.96749 11.7355C7.96749 12.195 8.31404 12.534 8.79618 12.534C9.00712 12.534 9.21052 12.4512 9.39132 12.2779L14.3559 7.31334C14.5292 7.1476 14.6271 6.9216 14.6271 6.69559Z" fill="#B0B7C0" fill-opacity="0.8"/>
</svg>
